<svg width="17" height="18" viewBox="0 0 17 18" fill="none" xmlns="http://www.w3.org/2000/svg">
<path d="M3.76735 10.7758L3.17556 12.985L1.01258 13.0308C0.366168 11.8318 -0.000488281 10.46 -0.000488281 9.00232C-0.000488281 7.59271 0.342326 6.26342 0.949989 5.09296H0.950454L2.87611 5.446L3.71967 7.3601C3.54311 7.87482 3.44688 8.42736 3.44688 9.00232C3.44695 9.62632 3.55998 10.2242 3.76735 10.7758Z" fill="#FBBB00"/>
<path d="M16.852 7.41348C16.9496 7.9277 17.0005 8.45876 17.0005 9.00151C17.0005 9.6101 16.9365 10.2037 16.8146 10.7764C16.4008 12.725 15.3196 14.4265 13.8217 15.6306L13.8212 15.6301L11.3957 15.5064L11.0525 13.3635C12.0464 12.7806 12.8231 11.8684 13.2323 10.7764H8.68677V7.41348H13.2986H16.852Z" fill="#518EF8"/>
<path d="M13.8225 15.6281L13.8229 15.6286C12.3662 16.7995 10.5156 17.5001 8.50117 17.5001C5.26393 17.5001 2.44939 15.6907 1.01361 13.028L3.76838 10.773C4.48625 12.6889 6.33444 14.0527 8.50117 14.0527C9.43249 14.0527 10.305 13.801 11.0537 13.3615L13.8225 15.6281Z" fill="#28B446"/>
<path d="M13.9265 2.45686L11.1727 4.71139C10.3978 4.22705 9.48188 3.94726 8.50059 3.94726C6.28482 3.94726 4.40206 5.37367 3.72015 7.35827L0.950904 5.09113H0.950439C2.3652 2.36345 5.21523 0.499855 8.50059 0.499855C10.5632 0.499855 12.4543 1.23456 13.9265 2.45686Z" fill="#F14336"/>
</svg>
